<svg id="Layer_1" data-name="Layer 1" xmlns="http://www.w3.org/2000/svg" viewBox="0 0 493.73 95.06"><defs><style>.cls-1{font-size:60px;}.cls-1,.cls-6{fill:#6b2702;font-family:Pacifico-Regular, Pacifico;}.cls-2{letter-spacing:-0.03em;}.cls-3{letter-spacing:-0.04em;}.cls-4{fill:#ee864f;}.cls-4,.cls-5{opacity:0.5;}.cls-5{fill:#a8c545;}.cls-6{font-size:50px;}</style></defs><text class="cls-1" transform="translate(140.76 64.23)"><tspan class="cls-2">B</tspan><tspan x="47.52" y="0">ench </tspan><tspan class="cls-3" x="168.24" y="0">B</tspan><tspan x="215.46" y="0">akery</tspan></text><path class="cls-4" d="M88.58,53a29.13,29.13,0,0,1-6.94,14.64,59.83,59.83,0,0,1-6,5.64c-10.72,8.66-24.43,13.39-37.3,10.21a30.09,30.09,0,0,1-7.4-3c-1.61-1.88-3.26-3.82-4.92-5.82-5-6.06-10-12.63-13.68-19.65a55.15,55.15,0,0,1-3.12-7.17C1.05,31.68,15.65,16.72,30.38,12.93a74.54,74.54,0,0,1,8.79-2.27c11.93-2.32,24.49-1.77,35.05,2.5a39.71,39.71,0,0,1,8.25,7.73,29.77,29.77,0,0,1,3.73,7.74c.62,2.57,1.07,5.21,1.51,7.86s.85,5.33,1.38,8A37.63,37.63,0,0,1,88.58,53Z" transform="translate(-6.84 -9.31)"/><path class="cls-5" d="M49.94,76.05a28.43,28.43,0,0,1-3.32-15.52,58.58,58.58,0,0,1,1.34-8c3.19-13.13,11-25,22.95-30.16a29.51,29.51,0,0,1,7.53-2.1c2.38.51,4.82,1,7.3,1.6,7.52,1.72,15.34,3.86,22.35,7.15a54.93,54.93,0,0,1,6.7,3.71c16,7.78,13.52,28.12,4.31,39.84a73.56,73.56,0,0,1-5.5,7c-7.9,8.91-18,16-28.77,18.93a38.92,38.92,0,0,1-11-1.1,29.33,29.33,0,0,1-7.51-3.8c-2-1.64-3.94-3.42-5.86-5.22S56.6,84.73,54.6,83A37,37,0,0,1,49.94,76.05Z" transform="translate(-6.84 -9.31)"/><text class="cls-6" transform="translate(53.9 64.23) rotate(11.17)">B</text><text class="cls-6" transform="matrix(-1, 0, 0, 1, 64.81, 56.66)">B</text></svg>